<svg width="1359" height="1337" viewBox="0 0 1359 1337" fill="none" xmlns="http://www.w3.org/2000/svg">
<g clip-path="url(#clip0_105_30)">
<path d="M1292.83 1188.04L1292.93 1052.32L1317.11 1048.89C1326.03 1047.62 1332.5 1041.76 1332.5 1034.93C1332.5 1028.1 1326.06 1022.24 1317.13 1020.97L1292.96 1017.52L1293.06 881.799C1293.06 876.478 1289.12 871.603 1282.83 869.165C1276.55 866.725 1268.98 867.129 1263.21 870.213L1052.16 983.153L620.1 921.49C618.942 921.326 617.764 921.242 616.587 921.242L209.55 921.066C202.734 921.063 195.353 921.597 187.617 922.656C102.868 934.25 64.8926 987.128 64.8582 1034.39C64.838 1062.96 78.6772 1093.6 108.35 1115.94C127.759 1130.55 153.94 1141.62 187.45 1146.23C195.184 1147.29 202.563 1147.84 209.38 1147.84L616.418 1148.01C617.596 1148.01 618.773 1147.93 619.931 1147.77L1052.09 1086.47L1262.97 1199.59C1268.72 1202.68 1276.29 1203.09 1282.58 1200.66C1288.87 1198.23 1292.83 1193.36 1292.83 1188.04ZM1255.26 909.351L1255.18 1012.13L1103.62 990.497L1255.26 909.351ZM209.401 1119.42C204.854 1119.42 199.757 1119.04 194.254 1118.28C126.597 1108.96 102.62 1067.27 102.642 1034.41C102.667 1001.54 126.709 959.872 194.38 950.614C199.884 949.86 204.981 949.481 209.532 949.481L247.356 949.497L247.227 1119.44L209.401 1119.42ZM285.012 1119.46L285.141 949.513L590.602 949.645L590.473 1119.59L285.012 1119.46ZM628.256 1117.67L628.382 951.593L1042.37 1010.68L1042.33 1058.94L628.256 1117.67ZM1080.12 1053.59L1080.15 1016.07L1211.97 1034.89L1080.12 1053.59ZM1103.55 1079.18L1255.14 1057.68L1255.06 1160.45L1103.55 1079.18Z" fill="black"/>
<path d="M1292.83 462.038L1292.93 326.316L1317.11 322.887C1326.03 321.621 1332.5 315.762 1332.5 308.933C1332.5 302.104 1326.06 296.24 1317.13 294.966L1292.96 291.516L1293.06 155.799C1293.06 150.478 1289.12 145.603 1282.83 143.165C1276.55 140.725 1268.98 141.129 1263.21 144.213L1052.16 257.153L620.1 195.49C618.942 195.326 617.764 195.242 616.587 195.242L209.55 195.066C202.734 195.063 195.353 195.597 187.617 196.656C102.868 208.25 64.8926 261.128 64.8582 308.39C64.8379 336.962 78.6772 367.599 108.35 389.94C127.759 404.554 153.94 415.617 187.45 420.229C195.184 421.295 202.563 421.836 209.38 421.837L616.418 422.011C617.596 422.012 618.773 421.93 619.931 421.767L1052.09 360.474L1262.97 473.593C1268.72 476.681 1276.29 477.092 1282.58 474.658C1288.87 472.225 1292.83 467.357 1292.83 462.038ZM1255.26 183.351L1255.18 286.129L1103.62 264.497L1255.26 183.351ZM209.401 393.424C204.854 393.423 199.757 393.039 194.254 392.281C126.597 382.962 102.62 341.274 102.642 308.407C102.667 275.538 126.709 233.872 194.38 224.614C199.884 223.86 204.981 223.481 209.532 223.481L247.356 223.497L247.227 393.441L209.401 393.424ZM285.012 393.458L285.141 223.513L590.602 223.645L590.473 393.589L285.012 393.458ZM628.255 391.671L628.382 225.593L1042.37 284.678L1042.33 332.944L628.255 391.671ZM1080.12 327.586L1080.15 290.072L1211.97 308.886L1080.12 327.586ZM1103.55 353.178L1255.14 331.677L1255.06 434.455L1103.55 353.178Z" fill="black"/>
<path d="M1292.83 832.038L1292.93 696.315L1317.11 692.886C1326.03 691.621 1332.5 685.762 1332.5 678.933C1332.5 672.104 1326.06 666.24 1317.13 664.966L1292.96 661.516L1293.06 525.799C1293.06 520.478 1289.12 515.603 1282.83 513.165C1276.55 510.725 1268.98 511.129 1263.22 514.213L1052.16 627.153L620.1 565.49C618.942 565.326 617.764 565.241 616.587 565.242L209.551 565.066C202.734 565.063 195.353 565.597 187.617 566.655C102.869 578.25 64.8929 631.127 64.8585 678.39C64.8383 706.962 78.6776 737.599 108.35 759.94C127.759 774.553 153.94 785.616 187.45 790.229C195.184 791.294 202.563 791.836 209.38 791.836L616.418 792.011C617.596 792.012 618.773 791.929 619.931 791.766L1052.09 730.473L1262.97 843.593C1268.72 846.681 1276.29 847.092 1282.58 844.658C1288.87 842.225 1292.83 837.357 1292.83 832.038ZM1255.26 553.351L1255.18 656.129L1103.62 634.497L1255.26 553.351ZM209.402 763.424C204.855 763.423 199.757 763.039 194.254 762.28C126.597 752.962 102.621 711.274 102.643 678.407C102.668 645.538 126.709 603.872 194.38 594.613C199.884 593.86 204.981 593.481 209.532 593.481L247.356 593.497L247.227 763.441L209.402 763.424ZM285.012 763.457L285.142 593.513L590.602 593.644L590.473 763.589L285.012 763.457ZM628.256 761.67L628.382 595.593L1042.37 654.677L1042.33 702.944L628.256 761.67ZM1080.12 697.586L1080.15 660.072L1211.98 678.886L1080.12 697.586ZM1103.55 723.178L1255.14 701.676L1255.06 804.454L1103.55 723.178Z" fill="black"/>
</g>
<defs>
<clipPath id="clip0_105_30">
<rect width="1359" height="1337" fill="white"/>
</clipPath>
</defs>
</svg>
